<svg width="98" height="98" viewBox="0 0 98 98" fill="none" xmlns="http://www.w3.org/2000/svg">
<g clip-path="url(#clip0_306_3355)">
<path d="M78.0308 7.28125H33.0735V25.9247H87.6325V16.8792C87.6325 11.5864 83.3251 7.28125 78.0308 7.28125Z" fill="#33AD79"/>
<path d="M52.5821 28.7939H0V11.4948C0 5.15601 5.15825 0 11.4993 0H28.3117C29.9827 0 31.5925 0.352158 33.055 1.01385C35.0976 1.93425 36.8524 3.45129 38.0831 5.4334L52.5821 28.7939Z" fill="#B0DFCB"/>
<path d="M98 32.6664V88.3895C98 93.6891 93.6859 97.9995 88.3841 97.9995H9.61592C4.31412 97.9995 0 93.6891 0 88.3895V23.0542H88.3841C93.6859 23.0542 98 27.3661 98 32.6664Z" fill="#B0DFCB"/>
<path d="M74.779 60.5266C74.779 74.7422 63.2146 86.3074 49.0005 86.3074C34.7863 86.3074 23.2219 74.7422 23.2219 60.5266C23.2219 46.3132 34.7863 34.748 49.0005 34.748C63.2146 34.748 74.779 46.3132 74.779 60.5266Z" fill="white"/>
<path d="M55.7885 60.6217C55.3493 60.9752 54.8111 61.1477 54.2778 61.1477C53.6101 61.1477 52.9467 60.8789 52.4825 60.3552L51.3457 59.0745V67.4595C51.3457 68.6903 50.295 69.6888 48.9999 69.6888C47.7049 69.6888 46.6542 68.6903 46.6542 67.4595V59.0745L45.5173 60.3552C44.6804 61.2963 43.2015 61.4165 42.2113 60.6217C41.2217 59.8281 41.0946 58.4219 41.9297 57.4809L46.5729 52.2494C47.1783 51.569 48.0616 51.1777 48.9999 51.1777C49.9382 51.1777 50.8215 51.569 51.4269 52.2494L56.0701 57.4809C56.9052 58.4219 56.7781 59.8281 55.7885 60.6217Z" fill="#8AD0B2"/>
</g>
<defs>
<clipPath id="clip0_306_3355">
<rect width="98" height="98" fill="white"/>
</clipPath>
</defs>
</svg>
