<svg width="28" height="29" viewBox="0 0 28 29" fill="none" xmlns="http://www.w3.org/2000/svg">
<path d="M23.3268 5.63341C21.8524 4.20564 20.0968 3.14175 18.1834 2.49453C17.1106 1.22508 15.4784 0.416748 13.6539 0.416748C11.8295 0.416748 10.1973 1.22786 9.12443 2.49453C7.21108 3.14175 5.45837 4.20564 3.98105 5.63341C1.39645 8.13619 -0.0263672 11.4612 -0.0263672 15.0001C-0.0263672 18.539 1.39645 21.864 3.98105 24.3667C6.56565 26.8695 9.99935 28.2473 13.6539 28.2473C17.3085 28.2473 20.7422 26.8695 23.3268 24.3667C25.9114 21.864 27.3342 18.539 27.3342 15.0001C27.3342 11.4612 25.9114 8.13619 23.3268 5.63341Z" fill="white"/>
<path d="M18.8056 3.55853C19.2244 4.33353 19.4597 5.21687 19.4597 6.13353C19.4597 9.35853 16.9296 11.7585 13.6508 11.7585C10.372 11.7585 7.84188 9.36131 7.84188 6.13353C7.84188 5.21687 8.07998 4.28353 8.49592 3.55853C3.92626 5.48076 0.739258 9.88909 0.739258 15.0196C0.739258 21.9141 6.52807 27.503 13.6479 27.503C20.7677 27.503 26.5566 21.9141 26.5566 15.0196C26.5566 9.88909 23.3696 5.48076 18.7999 3.55853H18.8056ZM13.6536 1.17798C10.94 1.17798 8.75696 3.25853 8.75696 5.78076C8.75696 7.24465 9.68639 8.21409 11.0518 8.30298C12.4718 8.39187 13.602 7.3502 13.6565 5.88631C13.711 4.61687 14.6577 3.57798 16.0403 3.57798C17.423 3.57798 18.2979 4.65298 18.4987 5.93909C18.4987 5.9752 18.5704 5.9752 18.5704 5.93909C18.5876 3.24187 16.4046 1.17798 13.6536 1.17798ZM4.74955 15.2835C4.74955 16.378 5.16836 17.5224 6.18671 18.1058L5.78511 18.4946C5.09378 18.178 4.51145 17.5946 4.10985 16.8558C3.76275 17.578 3.07142 18.2669 2.41738 18.5474L2.03586 18.2113C3.01979 17.5058 3.51031 16.3946 3.51031 15.2835V13.8724H4.74955V15.2835ZM9.62901 14.7002C9.62901 15.0002 10.1023 15.2808 10.94 15.2808C11.7776 15.2808 12.2509 14.9974 12.2509 14.7002C12.2509 14.4169 11.7948 14.1363 10.94 14.1363C10.0851 14.1363 9.62901 14.4196 9.62901 14.7002ZM13.4901 14.7002C13.4901 15.3891 12.5435 15.7752 10.94 15.7752C9.33642 15.7752 8.38978 15.3863 8.38978 14.7002C8.38978 14.0669 9.33642 13.6419 10.94 13.6419C12.5435 13.6419 13.4901 14.0641 13.4901 14.7002ZM16.6771 16.6224C15.2199 16.6224 14.147 16.0419 14.147 15.1585C14.147 14.2752 15.2199 13.7141 16.6771 13.7141C18.1344 13.7141 19.2072 14.2946 19.2072 15.1585C19.2072 16.0224 18.1516 16.6224 16.6771 16.6224ZM16.6771 16.1113C17.4603 16.1113 17.9709 15.7419 17.9709 15.1585C17.9709 14.5752 17.4603 14.2252 16.6771 14.2252C15.894 14.2252 15.3834 14.5946 15.3834 15.1585C15.3834 15.7224 15.894 16.1113 16.6771 16.1113ZM6.4793 16.0752H5.44087V15.4946H6.4793V13.7308H7.71853V18.7558H6.4793V16.0752ZM8.84589 18.7558C8.66517 18.7558 8.53608 18.6335 8.53608 18.4558V17.5391H12.1046V17.2752H8.53608V16.8002H10.3031V16.4835H8.24636V15.9891H13.6364V16.4835H11.5969V16.8002H13.3438V18.0002H9.77531V18.2641H13.3811V18.7585H8.84876L8.84589 18.7558ZM17.314 17.503V18.7558H16.0202V17.503H13.9979V16.9919H19.3507V17.503H17.3111H17.314ZM24.2674 17.503V18.7558H22.9938V17.503H21.8463V18.7558H20.5727V17.503H19.7523V16.9919H25.1051V17.503H24.2674ZM22.4287 16.6224C20.9714 16.6224 19.8986 16.0419 19.8986 15.1585C19.8986 14.2752 20.9714 13.7141 22.4287 13.7141C23.8859 13.7141 24.9588 14.2946 24.9588 15.1585C24.9588 16.0224 23.9031 16.6224 22.4287 16.6224ZM22.4287 16.1113C23.2118 16.1113 23.7224 15.7419 23.7224 15.1585C23.7224 14.5752 23.2118 14.2252 22.4287 14.2252C21.6455 14.2252 21.1349 14.5946 21.1349 15.1585C21.1349 15.7224 21.6455 16.1113 22.4287 16.1113Z" fill="#E60012"/>
</svg>
